<?xml version="1.0" standalone="no"?>
<!DOCTYPE svg PUBLIC "-//W3C//DTD SVG 20010904//EN"
 "http://www.w3.org/TR/2001/REC-SVG-20010904/DTD/svg10.dtd">
<svg version="1.0" xmlns="http://www.w3.org/2000/svg"
 width="1176.000000pt" height="1176.000000pt" viewBox="0 0 1176.000000 1176.000000"
 preserveAspectRatio="xMidYMid meet">
<metadata>
Created by potrace 1.11, written by Peter Selinger 2001-2013
</metadata>
<g transform="translate(0.000000,1176.000000) scale(0.100000,-0.100000)"
fill="#000000" stroke="none">
<path d="M6549 8716 c-2 -2 -20 -6 -39 -9 -213 -33 -410 -159 -536 -343 -54
-79 -112 -208 -116 -261 0 -1 -6 -26 -13 -55 -12 -56 -13 -215 0 -283 17 -96
69 -220 129 -310 43 -65 181 -205 202 -205 7 0 14 -4 16 -9 8 -23 152 -88 258
-118 68 -19 270 -26 330 -12 25 6 56 13 70 15 107 19 282 123 378 224 76 79
182 253 182 298 0 7 5 20 10 30 27 46 41 224 26 350 -11 97 -91 296 -140 348
-6 7 -20 24 -31 40 -64 90 -227 211 -331 244 -21 7 -45 17 -51 23 -7 5 -13 7
-13 3 0 -3 -12 -1 -27 5 -16 6 -41 13 -58 16 -45 6 -241 14 -246 9z"/>
<path d="M8448 8715 c-2 -1 -22 -5 -45 -8 -87 -12 -225 -70 -319 -134 -55 -37
-132 -110 -168 -159 -17 -21 -33 -41 -36 -44 -13 -10 -70 -119 -86 -161 -114
-312 -53 -624 170 -859 110 -117 247 -192 427 -237 53 -13 245 -12 302 1 32 7
60 14 62 15 72 16 167 58 243 108 76 50 171 146 226 227 41 62 100 194 112
251 19 86 24 233 11 330 -12 91 -65 224 -125 315 -111 165 -294 291 -497 341
-44 10 -268 22 -277 14z"/>
<path d="M10337 8714 c-1 -2 -15 -5 -30 -8 -246 -44 -461 -206 -579 -435 -15
-30 -28 -61 -28 -68 0 -7 -5 -13 -12 -13 -6 0 -9 -3 -5 -6 3 -3 2 -17 -3 -30
-6 -14 -12 -35 -14 -47 -3 -12 -8 -33 -11 -47 -10 -41 -13 -223 -5 -271 13
-70 20 -103 27 -119 3 -8 7 -20 8 -26 6 -28 71 -153 104 -199 107 -151 299
-285 461 -320 8 -2 33 -8 56 -13 55 -12 217 -13 279 -1 28 6 61 13 75 15 87
18 272 120 345 191 43 42 115 127 131 155 33 59 84 167 84 180 0 8 3 18 8 22
4 4 7 11 7 14 1 4 4 23 8 42 40 203 21 360 -62 530 -52 106 -57 113 -156 214
-128 131 -261 202 -440 235 -43 8 -241 12 -248 5z"/>
<path d="M908 8598 c-144 -154 -173 -188 -174 -201 -1 -19 -18 -130 -34 -212
-5 -27 -11 -63 -14 -80 -10 -65 -18 -114 -33 -200 -8 -49 -17 -99 -18 -110 -4
-25 -23 -136 -31 -172 -3 -16 -6 -35 -6 -43 0 -8 -4 -33 -9 -56 -4 -22 -11
-58 -14 -80 -2 -21 -7 -50 -10 -64 -3 -14 -8 -45 -11 -70 -3 -25 -8 -47 -9
-50 -2 -3 -6 -26 -10 -50 -3 -25 -17 -110 -31 -190 -13 -80 -27 -161 -30 -180
-3 -19 -9 -57 -14 -85 -5 -27 -12 -66 -14 -85 -3 -19 -8 -46 -10 -60 -10 -54
-38 -216 -41 -240 -2 -14 -6 -40 -9 -57 -3 -18 -8 -45 -11 -60 -2 -16 -15 -95
-29 -178 -14 -82 -28 -167 -32 -189 -3 -21 -8 -48 -10 -60 -2 -11 -6 -34 -9
-51 -3 -16 -7 -43 -10 -60 -3 -16 -8 -46 -10 -65 -3 -19 -7 -46 -10 -58 -8
-32 -18 -103 -19 -124 0 -10 -4 -18 -9 -18 -4 0 -6 -4 -3 -9 3 -5 -1 -44 -8
-88 -8 -43 -17 -91 -20 -108 -3 -16 -7 -41 -10 -55 -12 -62 -10 -86 7 -87 6
-1 39 -8 72 -17 126 -32 238 -57 241 -54 1 2 6 26 9 53 4 28 8 52 10 55 2 3 6
34 10 70 4 36 9 74 11 85 5 24 12 67 19 118 9 70 16 112 20 137 3 14 7 50 11
80 3 30 8 58 10 61 2 3 6 33 9 65 4 32 8 66 10 74 2 8 7 35 10 60 3 25 10 73
16 108 5 34 12 82 15 106 2 24 7 55 9 67 3 13 8 44 11 69 3 25 8 52 9 61 2 9
6 40 10 69 4 29 8 62 11 73 3 19 23 152 29 204 2 12 6 34 9 50 3 15 8 52 11
82 4 30 9 63 11 75 2 12 6 42 9 67 3 25 8 56 10 70 3 13 8 42 11 64 2 22 11
81 19 130 8 50 17 113 20 140 3 28 8 57 10 65 2 8 7 38 10 65 3 28 8 59 10 70
2 11 4 29 5 40 3 26 17 -35 24 -100 3 -27 8 -66 10 -85 3 -19 8 -54 11 -77 3
-24 10 -75 15 -115 6 -40 13 -93 16 -118 3 -25 7 -58 10 -74 5 -27 53 -385 58
-431 5 -43 19 -141 22 -159 2 -10 6 -44 10 -75 3 -31 8 -65 10 -76 2 -11 6
-40 9 -65 3 -25 8 -60 11 -78 2 -18 6 -54 9 -80 3 -26 8 -54 10 -62 2 -8 7
-37 10 -65 7 -64 13 -111 19 -155 5 -32 12 -78 22 -155 2 -16 6 -54 9 -84 3
-30 8 -57 10 -61 2 -3 6 -34 10 -69 8 -75 13 -102 20 -109 3 -3 5 3 6 14 0 10
3 30 5 44 36 198 55 301 59 330 5 29 29 163 40 221 2 9 6 34 9 55 8 47 17 102
23 129 2 11 6 36 9 55 2 19 7 42 9 50 2 8 7 31 10 50 3 19 7 46 10 60 3 14 7
41 10 60 3 19 10 60 15 90 6 30 12 66 15 80 17 98 35 198 38 215 3 11 8 42 11
68 8 50 9 56 25 142 6 28 13 66 15 85 3 19 8 47 11 63 3 15 7 37 9 50 2 12 9
49 15 82 6 33 13 74 16 90 2 17 7 39 9 50 2 11 7 42 10 69 4 27 9 53 11 57 3
3 7 28 10 54 6 65 12 66 20 3 3 -29 8 -69 11 -88 6 -49 14 -125 19 -190 3 -30
7 -75 10 -99 3 -24 8 -62 10 -85 3 -22 7 -57 9 -76 5 -39 17 -149 21 -195 3
-31 13 -123 21 -185 2 -19 7 -64 10 -100 3 -36 8 -74 10 -85 2 -11 7 -49 10
-85 3 -36 7 -78 8 -95 2 -16 7 -64 11 -105 4 -41 9 -83 11 -93 2 -10 6 -46 9
-80 6 -64 12 -114 20 -182 3 -22 8 -67 11 -100 3 -33 7 -71 8 -85 4 -34 15
-135 21 -190 7 -67 14 -130 19 -175 3 -22 8 -67 11 -100 5 -51 11 -96 14 -101
1 -2 189 44 274 67 42 11 40 -6 17 159 -6 36 -12 85 -14 110 -3 25 -7 61 -10
80 -3 19 -8 58 -11 85 -4 28 -8 64 -11 80 -8 65 -14 117 -19 163 -3 26 -8 58
-10 72 -2 14 -7 50 -10 80 -3 30 -8 66 -10 80 -4 22 -11 76 -20 160 -10 82
-44 348 -49 380 -2 14 -7 52 -11 85 -4 33 -9 75 -11 93 -2 17 -6 47 -8 65 -3
17 -7 55 -11 82 -3 28 -8 66 -11 85 -3 19 -7 53 -10 75 -2 22 -6 54 -8 70 -3
17 -8 56 -11 88 -4 32 -8 66 -10 75 -3 17 -12 86 -20 157 -2 22 -7 60 -10 85
-4 25 -8 59 -10 75 -1 17 -6 50 -9 75 -4 25 -9 63 -10 85 -2 22 -6 51 -9 65
-3 14 -9 54 -12 90 -3 36 -8 74 -10 85 -3 11 -7 45 -10 75 -3 30 -12 100 -19
155 -8 54 -14 102 -14 105 0 3 -1 7 -2 10 -1 3 -3 21 -5 40 -2 19 -6 53 -9 75
-17 124 -29 224 -29 243 0 6 -3 12 -7 12 -14 0 -287 -275 -293 -295 -3 -11 -9
-42 -12 -70 -4 -27 -9 -59 -10 -70 -2 -11 -6 -40 -10 -65 -3 -25 -8 -56 -10
-70 -6 -40 -17 -113 -21 -145 -5 -39 -13 -92 -21 -135 -3 -19 -7 -46 -9 -60
-1 -14 -5 -43 -8 -65 -11 -70 -16 -99 -21 -130 -3 -16 -8 -50 -11 -75 -3 -25
-7 -58 -10 -75 -3 -16 -7 -46 -10 -65 -2 -19 -6 -46 -9 -60 -2 -14 -7 -45 -10
-70 -6 -46 -8 -59 -21 -140 -4 -25 -8 -56 -9 -70 -1 -14 -3 -25 -5 -25 -3 0
-18 -120 -19 -159 -1 -11 -3 -17 -6 -14 -6 5 -11 43 -20 143 -4 39 -9 81 -11
95 -2 14 -6 50 -9 80 -11 110 -13 126 -19 170 -4 25 -8 63 -10 85 -2 22 -7 65
-10 95 -10 80 -15 128 -21 190 -3 30 -8 72 -10 93 -11 86 -13 102 -31 267 -6
56 -14 132 -19 175 -2 22 -7 65 -11 95 -3 30 -7 69 -10 85 -2 17 -6 55 -9 85
-3 30 -7 70 -10 89 -2 18 -5 51 -7 72 -1 21 -5 39 -8 39 -4 0 -54 -51 -112
-112z"/>
<path d="M2633 8622 l-43 -3 0 -875 0 -874 -70 0 c-38 0 -70 -1 -70 -3 0 -6
-98 -322 -105 -339 -7 -17 3 -18 119 -18 l126 0 0 -710 0 -710 514 0 c482 0
515 1 519 18 7 26 3 339 -4 347 -4 3 -160 6 -347 6 l-340 0 0 525 0 524 352 0
351 0 0 178 0 177 -352 3 -351 2 1 703 2 702 355 0 c195 -1 358 3 361 7 5 7
-67 244 -95 311 -11 27 -12 27 -106 27 -52 0 -248 2 -435 3 -187 1 -359 1
-382 -1z"/>
<path d="M4008 8622 c-36 -2 -58 -8 -59 -15 -4 -73 0 -3439 4 -3444 11 -10
742 -4 793 7 282 63 522 441 594 933 21 140 23 236 23 802 -1 533 -4 663 -18
749 -21 125 -29 162 -51 246 -14 52 -29 104 -33 115 -5 11 -15 36 -22 55 -48
136 -153 305 -243 393 -44 43 -145 117 -160 117 -3 0 -17 5 -33 12 -41 16 -51
18 -118 24 -69 6 -591 11 -677 6z m764 -381 c120 -61 207 -198 224 -351 7 -67
12 -2039 5 -2046 -2 -2 -5 -20 -7 -41 -4 -59 -10 -78 -48 -156 -47 -97 -100
-151 -186 -191 -44 -20 -65 -22 -254 -24 l-206 -2 0 1421 0 1420 213 -3 c201
-3 214 -4 259 -27z"/>
<path d="M8915 5864 l0 -874 -60 0 c-69 0 -82 -6 -88 -40 -3 -14 -10 -38 -17
-55 -6 -16 -13 -38 -15 -47 -2 -9 -18 -60 -35 -113 -17 -54 -28 -100 -25 -103
3 -3 57 -5 120 -5 63 0 116 -2 116 -6 1 -3 2 -322 3 -709 l1 -703 515 -1 515
0 3 186 2 185 -341 0 c-188 0 -344 2 -346 5 -4 4 -7 867 -4 1012 l1 31 318 1
c174 0 333 1 352 1 l35 1 -3 72 c-2 40 -2 84 -1 98 1 22 1 54 -2 120 0 8 0 20
1 25 10 46 23 44 -346 44 -190 -1 -348 2 -351 4 -7 8 -8 1386 0 1393 3 4 166
7 362 7 l356 0 -6 27 c-3 15 -27 92 -53 171 l-47 144 -480 2 -480 2 0 -875z"/>
<path d="M5824 6720 l-31 -5 1 -1752 0 -1753 83 -1 c46 0 103 0 128 0 25 0 64
0 88 0 l42 1 0 711 c0 391 3 713 8 716 4 2 65 6 135 7 146 4 242 25 342 76 50
25 167 114 203 154 80 87 155 235 178 351 14 67 17 764 5 875 -19 167 -123
346 -271 467 -36 29 -160 97 -195 106 -21 6 -29 9 -80 25 -27 9 -102 16 -190
18 -80 3 -164 5 -188 7 -23 1 -42 0 -42 -3 0 -6 -154 -4 -172 2 -7 2 -27 2
-44 -2z m668 -353 c25 -14 58 -41 72 -59 15 -18 31 -39 37 -46 20 -24 58 -130
67 -185 10 -62 8 -756 -2 -802 -25 -117 -91 -220 -170 -269 -47 -30 -50 -30
-196 -31 -82 -1 -153 1 -157 4 -5 3 -9 324 -8 712 l0 706 156 -1 c149 -2 157
-3 201 -29z"/>
<path d="M7480 6720 c0 -3 -46 -5 -102 -5 l-103 0 -1 -1752 0 -1753 25 -1 c28
-1 237 0 286 0 l30 1 0 1586 0 1585 65 -2 c85 -3 133 -14 199 -47 52 -25 151
-114 151 -135 0 -6 6 -18 14 -26 16 -18 62 -157 71 -211 11 -76 19 -179 18
-270 0 -104 -11 -288 -17 -299 -3 -3 -7 -26 -11 -49 -3 -23 -17 -72 -31 -109
-68 -180 -167 -264 -319 -269 -38 -1 -74 -3 -79 -3 -4 -1 -5 -9 -1 -18 8 -20
61 -190 75 -238 5 -16 18 -60 29 -97 44 -143 62 -204 66 -218 2 -8 4 -16 5
-17 2 -2 3 -6 5 -10 1 -5 4 -15 7 -23 3 -8 16 -49 28 -90 12 -41 25 -86 30
-100 5 -14 23 -72 40 -130 17 -58 35 -116 40 -130 5 -14 23 -72 40 -130 17
-58 35 -116 40 -130 5 -14 23 -72 40 -130 17 -58 35 -116 40 -130 5 -14 18
-59 30 -100 12 -41 24 -82 27 -90 4 -8 5 -18 5 -22 -3 -13 24 -9 70 11 111 48
218 102 218 109 0 5 -19 65 -41 133 -23 68 -42 129 -44 134 -1 6 -5 17 -8 25
-3 8 -16 47 -27 85 -12 39 -25 79 -30 90 -5 11 -22 63 -38 115 -24 75 -177
549 -247 765 -7 22 -11 43 -10 46 2 3 22 11 44 19 133 44 282 243 345 461 17
59 20 69 36 159 20 113 28 334 16 455 -7 74 -17 156 -22 178 -4 23 -11 58 -19
107 -15 89 -70 274 -99 335 -58 123 -158 213 -296 268 -60 24 -92 33 -185 52
-16 4 -93 8 -170 10 -77 3 -140 5 -140 5 0 1 -21 2 -48 3 -26 1 -47 0 -47 -3z"/>
<path d="M656 4749 c-85 -17 -205 -60 -236 -84 -8 -7 -36 -24 -61 -39 -25 -14
-76 -56 -112 -92 -167 -165 -252 -376 -242 -600 2 -54 6 -108 8 -119 11 -62
22 -104 35 -135 8 -19 14 -36 13 -37 -2 -5 70 -135 80 -143 3 -3 12 -15 21
-28 38 -56 126 -138 200 -188 168 -112 356 -156 565 -130 65 8 229 62 265 87
14 11 29 19 33 19 4 0 30 17 59 37 184 135 299 328 332 558 6 46 5 176 -2 210
-3 17 -7 39 -8 50 -17 127 -116 309 -230 420 -189 185 -460 265 -720 214z"/>
<path d="M2600 4754 c-145 -23 -209 -47 -342 -130 -61 -38 -191 -173 -228
-236 -17 -29 -35 -60 -40 -68 -11 -19 -52 -126 -52 -137 0 -4 -4 -18 -9 -31
-27 -71 -30 -303 -5 -372 3 -8 7 -26 10 -40 6 -35 34 -105 69 -170 107 -198
316 -357 532 -405 150 -33 329 -22 441 25 24 11 44 17 44 15 0 -9 139 71 190
110 121 93 228 242 274 381 31 93 38 139 40 254 3 214 -72 402 -228 569 -98
104 -275 205 -396 225 -19 3 -48 8 -65 12 -57 11 -160 10 -235 -2z"/>
<path d="M4520 4758 c-88 -11 -99 -14 -106 -21 -4 -4 -16 -7 -27 -7 -11 0 -61
-19 -111 -43 -137 -65 -251 -164 -327 -282 -21 -33 -43 -65 -47 -71 -16 -18
-73 -182 -76 -217 -2 -19 -6 -39 -10 -45 -3 -6 -4 -68 -2 -139 3 -101 9 -145
29 -208 76 -243 253 -434 486 -524 77 -30 96 -35 176 -48 49 -8 199 -7 240 2
17 3 44 9 60 12 17 3 38 9 48 14 9 5 17 7 17 5 0 -11 150 63 207 102 58 40
155 130 183 172 8 12 20 28 27 35 30 31 96 178 117 260 20 74 23 111 21 210
-2 129 -5 145 -36 244 -114 360 -494 600 -869 549z"/>
</g>
</svg>
