<svg xmlns="http://www.w3.org/2000/svg" xmlns:xlink="http://www.w3.org/1999/xlink" width="147" height="71" viewBox="0 0 147 71">
    <defs>
        <path id="a" d="M0 46.598h19.122V.06H0v46.538z"/>
    </defs>
    <g fill="none" fill-rule="evenodd">
        <path fill="#0D583E" d="M22.034.007l-3.686 3.627-2.945 19.976L12.777.007 9.237 3.8 2.295 45.153l4.173 1.003 4.722-32.115 3.968 29.38 5.19-29.563 3.479 32.122 3.907-.974zM33.487 1.24h10.866l1.389 4.328h-9.096v17.555h8.79v4.51h-8.79V40.74h8.669v4.632H32.373V27.633H29.26l1.401-4.51h1.712V1.24zM53.739 5.629v35.475h4.395c2.418 0 4.396-2.543 4.396-5.65V11.28c0-3.109-1.978-5.651-4.396-5.651H53.74zM49.344 1.24h8.851c4.868 0 8.852 7.095 8.852 15.767v11.744c0 8.672-3.984 15.767-8.852 15.767h-8.851V1.24zM76.692 29.035v17.799h3.174c1.981 0 3.602-2.363 3.602-5.25v-7.298c0-2.888-1.62-5.25-3.602-5.25h-3.174zm-4.273-4.023h6.226c4.97 0 9.035 4.06 9.035 9.022v7.924c0 4.961-4.065 9.021-9.035 9.021h-1.953V68.9H72.42V25.013zM90.916 25.012h4.272c5.145-.14 8.523 1.408 9.768 4.999 3.541 11.714.041 19.496-4.213 20.602l5.678 17.494-3.54 1.646-7.02-22.858c2.96.488 4.995-1.138 5.676-5.851.542-6.75-.219-12.119-6.349-11.8V68.9h-4.272V25.012z"/>
        <g transform="translate(127.157 23.831)">
            <mask id="b" fill="#fff">
                <use xlink:href="#a"/>
            </mask>
            <path fill="#0D583E" d="M4.174.06L0 1.181l7.676 41.615 3.686 3.802L19.122 1.18 15.11.334 9.847 34.462z" mask="url(#b)"/>
        </g>
        <path fill="#0D583E" d="M112.562 24.768h10.867l1.389 4.328h-9.096v17.555h8.79v4.511h-8.79v13.105h8.669V68.9h-12.942V51.162h-3.114l1.402-4.51h1.712V24.767zM83.047 20.258c5.585 0 10.141-4.549 10.141-10.126 0-5.576-4.556-10.125-10.14-10.125-5.586 0-10.14 4.549-10.14 10.125 0 5.577 4.554 10.126 10.14 10.126M106.848 20.258c5.585 0 10.14-4.549 10.14-10.126 0-5.576-4.555-10.125-10.14-10.125-5.585 0-10.14 4.549-10.14 10.125 0 5.577 4.555 10.126 10.14 10.126M130.656 20.258c5.585 0 10.14-4.549 10.14-10.126 0-5.576-4.555-10.125-10.14-10.125-5.586 0-10.14 4.549-10.14 10.125 0 5.577 4.554 10.126 10.14 10.126M10.14 69.685c5.586 0 10.141-4.549 10.141-10.126 0-5.576-4.555-10.125-10.14-10.125C4.555 49.434 0 53.984 0 59.56c0 5.577 4.555 10.126 10.14 10.126M33.941 69.685c5.585 0 10.14-4.549 10.14-10.126 0-5.576-4.555-10.125-10.14-10.125-5.585 0-10.14 4.55-10.14 10.125 0 5.577 4.555 10.126 10.14 10.126M57.749 69.685c5.585 0 10.14-4.549 10.14-10.126 0-5.576-4.555-10.125-10.14-10.125-5.585 0-10.14 4.55-10.14 10.125 0 5.577 4.555 10.126 10.14 10.126"/>
    </g>
</svg>
